<?xml version="1.0" encoding="UTF-8" standalone="no"?><!DOCTYPE svg PUBLIC "-//W3C//DTD SVG 1.1//EN" "http://www.w3.org/Graphics/SVG/1.1/DTD/svg11.dtd"><svg width="100%" height="100%" viewBox="0 0 512 512" version="1.1" xmlns="http://www.w3.org/2000/svg" xmlns:xlink="http://www.w3.org/1999/xlink" xml:space="preserve" xmlns:serif="http://www.serif.com/" style="fill-rule:evenodd;clip-rule:evenodd;stroke-linejoin:round;stroke-miterlimit:2;"><rect id="tab" x="0" y="0" width="512" height="512" style="fill:none;"/><g id="tab1" serif:id="tab"><path d="M84.112,108.736l0,-42.41c0,-11.598 9.402,-21 21,-21l174.098,0c11.598,0 21,9.402 21,21l0,42.41l177.556,0c11.598,0 21,9.402 21,21l0,315.705c0,11.598 -9.402,21 -21,21l-431.112,0c-11.598,0 -21,-9.402 -21,-21l0,-315.705c0,-11.598 9.402,-21 21,-21l37.458,0Zm174.098,-21.41l-132.098,0l0,42.41c0,11.598 -9.402,21 -21,21l-37.458,0l0,273.705l389.112,0l0,-273.705l-177.556,0c-11.598,0 -21,-9.402 -21,-21l0,-42.41Z"/></g></svg>